<svg width="208" height="104" viewBox="0 0 208 104" fill="none" xmlns="http://www.w3.org/2000/svg">
<rect width="208" height="104" fill="#E1E1E2"/>
<rect width="208" height="1" fill="#1A1B1C"/>
<path d="M26.704 85L22.384 73.8H20.4L16.096 85H18.272L19.232 82.392H23.552L24.512 85H26.704ZM21.408 76.504L22.912 80.6H19.904L21.408 76.504ZM32.0561 85.128C33.5601 85.128 34.7921 84.36 35.2081 83.224V85H37.0961V80.824C37.0961 79.752 36.2161 78.984 35.2401 78.984H32.2641V80.6H34.5361C34.8881 80.6 35.1121 80.824 35.1121 81.176C35.1121 82.376 33.6561 83.384 32.1361 83.384C30.1521 83.384 28.6161 81.88 28.6161 79.4C28.6161 76.92 30.1521 75.496 32.1681 75.496C33.7041 75.496 34.8081 76.344 35.0001 77.608H37.1281C36.9521 75.288 34.9361 73.672 32.1841 73.672C29.2721 73.672 26.5841 75.576 26.5841 79.4C26.5841 83.224 29.2241 85.128 32.0561 85.128ZM46.2515 85V83.16H40.7315V80.168H45.0195V78.344H40.7315V75.624H46.0755V73.8H38.6195V85H46.2515Z" fill="#1A1B1C"/>
<path d="M18.912 21.688C18.88 20.328 19.552 19.416 20.752 19.416C21.84 19.416 22.528 20.088 22.528 21.128C22.528 21.944 22.064 22.584 21.152 23.032L19.36 23.928C18.288 24.456 16.768 25.64 16.768 27.448L16.784 29H24.656V27.16H18.864C18.864 26.472 19.632 25.928 20.272 25.592L22 24.728C23.776 23.848 24.656 22.648 24.656 21.144C24.656 19.048 23.056 17.672 20.752 17.672C18.304 17.672 16.736 19.208 16.784 21.688H18.912ZM30.2126 29.128C32.9966 29.128 34.2766 27.208 34.2766 23.784V23.016C34.2766 19.592 32.9966 17.672 30.2126 17.672H29.5726C26.7886 17.672 25.5246 19.592 25.5246 23.016V23.784C25.5246 27.208 26.7886 29.128 29.5726 29.128H30.2126ZM29.6686 27.288C28.4046 27.288 27.6366 26.312 27.6366 24.344V22.456C27.6366 20.472 28.4046 19.496 29.6686 19.496H30.1166C31.3806 19.496 32.1646 20.472 32.1646 22.456V24.344C32.1646 26.312 31.3806 27.288 30.1166 27.288H29.6686ZM41.5853 24.76V23.08H35.4093V24.76H41.5853ZM44.4676 21.688C44.4356 20.328 45.1076 19.416 46.3076 19.416C47.3956 19.416 48.0836 20.088 48.0836 21.128C48.0836 21.944 47.6196 22.584 46.7076 23.032L44.9156 23.928C43.8436 24.456 42.3236 25.64 42.3236 27.448L42.3396 29H50.2116V27.16H44.4196C44.4196 26.472 45.1876 25.928 45.8276 25.592L47.5556 24.728C49.3316 23.848 50.2116 22.648 50.2116 21.144C50.2116 19.048 48.6116 17.672 46.3076 17.672C43.8596 17.672 42.2916 19.208 42.3396 21.688H44.4676ZM54.959 25.272C55.983 25.272 57.103 24.712 57.567 23.928C57.471 25.88 56.447 27.368 54.943 27.368C53.855 27.368 53.071 26.776 52.895 25.944H50.911C51.151 27.736 52.703 29.128 55.007 29.128C57.679 29.128 59.535 26.92 59.535 23C59.535 19.944 57.983 17.672 55.183 17.672C52.847 17.672 51.039 19.32 51.039 21.496C51.039 23.64 52.607 25.272 54.959 25.272ZM55.151 19.496C56.335 19.496 57.167 20.328 57.167 21.496C57.167 22.648 56.335 23.448 55.151 23.448C53.967 23.448 53.167 22.648 53.167 21.496C53.167 20.328 53.967 19.496 55.151 19.496Z" fill="#1A1B1C"/>
</svg>
