<svg width="448" height="544" viewBox="0 0 448 544" fill="none" xmlns="http://www.w3.org/2000/svg">
<rect width="448" height="544" fill="#F3F3F4"/>
<rect width="448" height="1" fill="#1A1B1C"/>
<path opacity="0.8" d="M23.504 26.688C24.496 26.192 25.152 25.36 25.152 24.16C25.152 22.16 23.776 20.8 21.52 20.8H17.136V32H18.8V27.584H21.6C22.56 27.584 23.216 28.288 23.296 29.28L23.52 32H25.136L24.912 29.136C24.848 28.048 24.32 27.168 23.504 26.688ZM21.472 22.24C22.928 22.24 23.488 23.136 23.488 24.16C23.488 25.168 22.928 26.112 21.472 26.112H18.8V22.24H21.472ZM36.5811 32L32.1811 20.8H30.6451L26.2451 32H27.9571L29.0291 29.152H33.7811L34.8531 32H36.5811ZM31.4131 22.88L33.2371 27.696H29.5891L31.4131 22.88ZM42.0498 32.128C44.6418 32.128 46.6418 30.592 46.8818 28.4H45.2018C45.0258 29.712 43.6978 30.656 42.0338 30.656C39.8578 30.656 38.2898 29.168 38.2898 26.4C38.2898 23.632 39.8578 22.144 42.0338 22.144C43.6658 22.144 44.9778 23.088 45.1698 24.4H46.9138C46.6098 22.208 44.5938 20.672 42.0498 20.672C39.2018 20.672 36.5778 22.56 36.5778 26.4C36.5778 30.24 39.1698 32.128 42.0498 32.128ZM55.5829 32V30.528H49.8869V26.96H54.3509V25.488H49.8869V22.272H55.4069V20.8H48.2229V32H55.5829Z" fill="#1A1B1C"/>
<path opacity="0.8" d="M318.139 32L313.739 20.8H312.203L307.803 32H309.515L310.587 29.152H315.339L316.411 32H318.139ZM312.971 22.88L314.795 27.696H311.147L312.971 22.88ZM319.07 31.136C319.07 30.7413 319.166 30.464 319.358 30.304C319.55 30.144 319.779 30.064 320.046 30.064C320.323 30.064 320.558 30.144 320.75 30.304C320.952 30.464 321.054 30.7413 321.054 31.136C321.054 31.52 320.952 31.7973 320.75 31.968C320.558 32.1387 320.323 32.224 320.046 32.224C319.779 32.224 319.55 32.1387 319.358 31.968C319.166 31.7973 319.07 31.52 319.07 31.136ZM328.046 32V20.8H326.382V32H328.046ZM330.016 31.136C330.016 30.7413 330.112 30.464 330.304 30.304C330.496 30.144 330.725 30.064 330.992 30.064C331.269 30.064 331.504 30.144 331.696 30.304C331.898 30.464 332 30.7413 332 31.136C332 31.52 331.898 31.7973 331.696 31.968C331.504 32.1387 331.269 32.224 330.992 32.224C330.725 32.224 330.496 32.1387 330.304 31.968C330.112 31.7973 330.016 31.52 330.016 31.136ZM342.289 32.128C344.881 32.128 346.881 30.592 347.121 28.4H345.441C345.265 29.712 343.937 30.656 342.273 30.656C340.097 30.656 338.529 29.168 338.529 26.4C338.529 23.632 340.097 22.144 342.273 22.144C343.905 22.144 345.217 23.088 345.409 24.4H347.153C346.849 22.208 344.833 20.672 342.289 20.672C339.441 20.672 336.817 22.56 336.817 26.4C336.817 30.24 339.409 32.128 342.289 32.128ZM353.518 32.128C356.702 32.128 359.07 29.696 359.07 26.4C359.07 23.104 356.702 20.672 353.518 20.672C350.318 20.672 347.95 23.104 347.95 26.4C347.95 29.696 350.318 32.128 353.518 32.128ZM353.518 30.656C351.294 30.656 349.646 28.848 349.646 26.4C349.646 23.952 351.294 22.144 353.518 22.144C355.742 22.144 357.374 23.952 357.374 26.4C357.374 28.848 355.742 30.656 353.518 30.656ZM362.196 32V23.392L367.604 32H369.444V20.8H367.78V29.424L362.388 20.8H360.532V32H362.196ZM373.064 32V27.088H377.528V25.616H373.064V22.272H378.584V20.8H371.4V32H373.064ZM381.697 32V20.8H380.033V32H381.697ZM387.09 32C390.21 32 392.738 30.048 392.738 26.4C392.738 22.752 390.21 20.8 387.09 20.8H383.65V32H387.09ZM385.314 22.272H386.994C389.074 22.272 391.026 23.44 391.026 26.4C391.026 29.36 389.074 30.528 386.994 30.528H385.314V22.272ZM401.534 32V30.528H395.838V26.96H400.302V25.488H395.838V22.272H401.358V20.8H394.174V32H401.534ZM404.659 32V23.392L410.067 32H411.907V20.8H410.243V29.424L404.851 20.8H402.995V32H404.659ZM418.822 32.128C421.414 32.128 423.414 30.592 423.654 28.4H421.974C421.798 29.712 420.47 30.656 418.806 30.656C416.63 30.656 415.062 29.168 415.062 26.4C415.062 23.632 416.63 22.144 418.806 22.144C420.438 22.144 421.75 23.088 421.942 24.4H423.686C423.382 22.208 421.366 20.672 418.822 20.672C415.974 20.672 413.35 22.56 413.35 26.4C413.35 30.24 415.942 32.128 418.822 32.128ZM432.355 32V30.528H426.659V26.96H431.123V25.488H426.659V22.272H432.179V20.8H424.995V32H432.355Z" fill="#1A1B1C"/>
<rect y="48" width="448" height="48" fill="#1A1B1C"/>
<path d="M48.368 78V76.768H42.544V72.832H47.136V71.6H42.544V68.032H48.192V66.8H41.184V78H48.368ZM52.7623 69.808C50.9543 69.808 49.4823 70.96 49.3383 72.512H50.5543C50.6183 71.632 51.5463 70.896 52.7303 70.896C54.1063 70.896 54.8903 71.648 54.8903 72.752C54.8903 73.008 54.7303 73.184 54.3783 73.184H52.5543C50.6023 73.184 49.3383 74.16 49.3383 75.696C49.3383 77.168 50.4423 78.128 52.1383 78.128C53.3863 78.128 54.4583 77.536 54.8903 76.608V78H56.1703V72.8C56.1703 71.008 54.8583 69.808 52.7623 69.808ZM52.3303 77.04C51.3063 77.04 50.6503 76.512 50.6503 75.68C50.6503 74.736 51.4343 74.16 52.6343 74.16H54.8903V74.368C54.8903 76.032 53.9463 77.04 52.3303 77.04ZM60.5441 78.128C62.3201 78.128 63.5041 77.2 63.5041 75.76C63.5041 72.064 58.7841 74.224 58.7841 72.048C58.7841 71.344 59.4081 70.896 60.3521 70.896C61.0881 70.896 62.0961 71.248 62.2081 72.272H63.4561C63.3601 70.784 62.1601 69.808 60.3841 69.808C58.6881 69.808 57.5361 70.704 57.5361 72.064C57.5361 75.552 62.2241 73.392 62.2241 75.792C62.2241 76.448 61.5521 77.008 60.5441 77.008C59.3761 77.008 58.6721 76.448 58.5601 75.408H57.3281C57.4561 77.088 58.6721 78.128 60.5441 78.128ZM65.7104 69.936H64.0304V71.072H65.7104V75.472C65.7104 77.04 66.7024 78 68.2384 78H69.4704V76.832H68.2864C67.5024 76.832 66.9904 76.304 66.9904 75.408V71.072H69.4704V69.936H66.9904V67.36H65.7104V69.936ZM83.2501 78L78.7861 66.8H77.5541L73.0901 78H74.5141L75.6821 74.976H80.6741L81.8261 78H83.2501ZM78.1781 68.48L80.1941 73.76H76.1461L78.1781 68.48ZM86.9048 78.128C88.6808 78.128 89.8648 77.2 89.8648 75.76C89.8648 72.064 85.1448 74.224 85.1448 72.048C85.1448 71.344 85.7688 70.896 86.7128 70.896C87.4488 70.896 88.4568 71.248 88.5688 72.272H89.8168C89.7208 70.784 88.5208 69.808 86.7448 69.808C85.0488 69.808 83.8968 70.704 83.8968 72.064C83.8968 75.552 88.5848 73.392 88.5848 75.792C88.5848 76.448 87.9128 77.008 86.9048 77.008C85.7368 77.008 85.0328 76.448 84.9208 75.408H83.6888C83.8168 77.088 85.0328 78.128 86.9048 78.128ZM91.1884 68.496H92.6764V66.608H91.1884V68.496ZM92.5804 78V69.936H91.3004V78H92.5804ZM97.491 69.808C95.683 69.808 94.211 70.96 94.067 72.512H95.283C95.347 71.632 96.275 70.896 97.459 70.896C98.835 70.896 99.619 71.648 99.619 72.752C99.619 73.008 99.459 73.184 99.107 73.184H97.283C95.331 73.184 94.067 74.16 94.067 75.696C94.067 77.168 95.171 78.128 96.867 78.128C98.115 78.128 99.187 77.536 99.619 76.608V78H100.899V72.8C100.899 71.008 99.587 69.808 97.491 69.808ZM97.059 77.04C96.035 77.04 95.379 76.512 95.379 75.68C95.379 74.736 96.163 74.16 97.363 74.16H99.619V74.368C99.619 76.032 98.675 77.04 97.059 77.04ZM103.753 78V73.648C103.753 72.08 104.745 70.976 106.121 70.976C107.337 70.976 108.137 71.904 108.137 73.28V78H109.417V73.072C109.417 71.104 108.233 69.808 106.409 69.808C105.177 69.808 104.169 70.368 103.753 71.488V69.936H102.473V78H103.753Z" fill="#FCFCFC"/>
<path d="M401.669 74.288C402.901 74.288 404.133 73.568 404.597 72.544C404.501 75.008 403.301 76.928 401.493 76.928C400.165 76.928 399.253 76.24 399.013 75.152H397.653C397.941 76.912 399.461 78.144 401.525 78.144C403.989 78.144 405.877 76.016 405.877 71.808C405.877 68.72 404.293 66.672 401.733 66.672C399.413 66.672 397.717 68.272 397.717 70.48C397.717 72.672 399.349 74.288 401.669 74.288ZM401.717 67.904C403.237 67.904 404.309 68.976 404.309 70.496C404.309 71.984 403.237 73.056 401.717 73.056C400.197 73.056 399.125 71.984 399.125 70.496C399.125 68.976 400.197 67.904 401.717 67.904ZM411.604 70.512C410.356 70.512 409.14 71.216 408.66 72.256C408.772 69.792 409.972 67.872 411.764 67.872C413.092 67.872 414.004 68.56 414.244 69.648H415.62C415.316 67.872 413.812 66.656 411.748 66.656C409.268 66.656 407.38 68.784 407.38 72.992C407.38 76.08 408.98 78.128 411.54 78.128C413.844 78.128 415.54 76.528 415.54 74.32C415.54 72.128 413.924 70.512 411.604 70.512ZM411.54 76.896C410.036 76.896 408.948 75.808 408.948 74.304C408.948 72.816 410.036 71.744 411.54 71.744C413.06 71.744 414.132 72.816 414.132 74.304C414.132 75.808 413.06 76.896 411.54 76.896ZM422.823 66.416C423.612 66.416 424.21 66.7307 424.615 67.36C425.02 67.9787 425.223 68.8533 425.223 69.984C425.223 71.1147 425.026 72 424.631 72.64C424.247 73.2693 423.644 73.584 422.823 73.584C422.322 73.584 421.895 73.44 421.543 73.152C421.191 72.864 420.924 72.4533 420.743 71.92C420.572 71.376 420.487 70.7307 420.487 69.984C420.487 68.8533 420.674 67.9787 421.047 67.36C421.42 66.7307 422.012 66.416 422.823 66.416ZM422.823 67.408C422.418 67.408 422.119 67.6267 421.927 68.064C421.746 68.4907 421.655 69.1307 421.655 69.984C421.655 70.8373 421.746 71.4827 421.927 71.92C422.119 72.3573 422.418 72.576 422.823 72.576C423.239 72.576 423.548 72.3627 423.751 71.936C423.954 71.4987 424.055 70.848 424.055 69.984C424.055 69.1307 423.954 68.4907 423.751 68.064C423.548 67.6267 423.239 67.408 422.823 67.408ZM430.135 66.576L423.799 78H422.567L428.903 66.576H430.135ZM429.815 70.992C430.338 70.992 430.775 71.136 431.127 71.424C431.479 71.7013 431.746 72.1067 431.927 72.64C432.119 73.1627 432.215 73.8027 432.215 74.56C432.215 75.6907 432.018 76.576 431.623 77.216C431.239 77.8453 430.636 78.16 429.815 78.16C429.314 78.16 428.887 78.016 428.535 77.728C428.183 77.44 427.916 77.0293 427.735 76.496C427.564 75.952 427.479 75.3067 427.479 74.56C427.479 73.4293 427.666 72.5547 428.039 71.936C428.412 71.3067 429.004 70.992 429.815 70.992ZM429.815 72C429.41 72 429.111 72.2133 428.919 72.64C428.738 73.0667 428.647 73.7067 428.647 74.56C428.647 75.424 428.738 76.0747 428.919 76.512C429.111 76.9387 429.41 77.152 429.815 77.152C430.231 77.152 430.54 76.9387 430.743 76.512C430.946 76.0853 431.047 75.4347 431.047 74.56C431.047 73.7067 430.946 73.0667 430.743 72.64C430.54 72.2133 430.231 72 429.815 72Z" fill="#FCFCFC"/>
<path d="M27.293 72L22 77.293L16.707 72L22 66.707L27.293 72Z" stroke="#FCFCFC"/>
<path d="M25 72L22 69L19 72L22 75L25 72Z" fill="#FCFCFC"/>
<path d="M45.184 126L47.968 116.896L50.736 126H52.144L55.568 114.8H54.176L51.392 123.936L48.576 114.8H47.36L44.528 123.936L41.776 114.8H40.352L43.824 126H45.184ZM58.0175 126V121.648C58.0175 120.08 59.0095 118.976 60.3855 118.976C61.6015 118.976 62.4015 119.904 62.4015 121.28V126H63.6815V121.072C63.6815 119.104 62.4975 117.808 60.6735 117.808C59.4415 117.808 58.4335 118.368 58.0175 119.488V114.624H56.7375V126H58.0175ZM65.3665 116.496H66.8545V114.608H65.3665V116.496ZM66.7585 126V117.936H65.4785V126H66.7585ZM69.4291 117.936H67.7491V119.072H69.4291V123.472C69.4291 125.04 70.4211 126 71.9571 126H73.1891V124.832H72.0051C71.2211 124.832 70.7091 124.304 70.7091 123.408V119.072H73.1891V117.936H70.7091V115.36H69.4291V117.936ZM79.9616 123.408C79.7056 124.416 78.8736 124.992 77.5616 124.992C76.0416 124.992 74.9376 123.808 74.8416 122.144H81.1456C81.1616 122.032 81.1776 121.76 81.1776 121.584C81.1776 119.44 79.7696 117.808 77.4176 117.808C75.0496 117.808 73.5776 119.552 73.5776 121.92C73.5776 124.224 75.1776 126.128 77.5616 126.128C79.5616 126.128 80.9856 125.056 81.2576 123.408H79.9616ZM77.4176 118.896C78.8576 118.896 79.7696 119.76 79.8656 121.12H74.9056C75.1456 119.696 76.0576 118.896 77.4176 118.896Z" fill="#1A1B1C"/>
<path d="M411.604 118.512C410.356 118.512 409.14 119.216 408.66 120.256C408.772 117.792 409.972 115.872 411.764 115.872C413.092 115.872 414.004 116.56 414.244 117.648H415.62C415.316 115.872 413.812 114.656 411.748 114.656C409.268 114.656 407.38 116.784 407.38 120.992C407.38 124.08 408.98 126.128 411.54 126.128C413.844 126.128 415.54 124.528 415.54 122.32C415.54 120.128 413.924 118.512 411.604 118.512ZM411.54 124.896C410.036 124.896 408.948 123.808 408.948 122.304C408.948 120.816 410.036 119.744 411.54 119.744C413.06 119.744 414.132 120.816 414.132 122.304C414.132 123.808 413.06 124.896 411.54 124.896ZM422.823 114.416C423.612 114.416 424.21 114.731 424.615 115.36C425.02 115.979 425.223 116.853 425.223 117.984C425.223 119.115 425.026 120 424.631 120.64C424.247 121.269 423.644 121.584 422.823 121.584C422.322 121.584 421.895 121.44 421.543 121.152C421.191 120.864 420.924 120.453 420.743 119.92C420.572 119.376 420.487 118.731 420.487 117.984C420.487 116.853 420.674 115.979 421.047 115.36C421.42 114.731 422.012 114.416 422.823 114.416ZM422.823 115.408C422.418 115.408 422.119 115.627 421.927 116.064C421.746 116.491 421.655 117.131 421.655 117.984C421.655 118.837 421.746 119.483 421.927 119.92C422.119 120.357 422.418 120.576 422.823 120.576C423.239 120.576 423.548 120.363 423.751 119.936C423.954 119.499 424.055 118.848 424.055 117.984C424.055 117.131 423.954 116.491 423.751 116.064C423.548 115.627 423.239 115.408 422.823 115.408ZM430.135 114.576L423.799 126H422.567L428.903 114.576H430.135ZM429.815 118.992C430.338 118.992 430.775 119.136 431.127 119.424C431.479 119.701 431.746 120.107 431.927 120.64C432.119 121.163 432.215 121.803 432.215 122.56C432.215 123.691 432.018 124.576 431.623 125.216C431.239 125.845 430.636 126.16 429.815 126.16C429.314 126.16 428.887 126.016 428.535 125.728C428.183 125.44 427.916 125.029 427.735 124.496C427.564 123.952 427.479 123.307 427.479 122.56C427.479 121.429 427.666 120.555 428.039 119.936C428.412 119.307 429.004 118.992 429.815 118.992ZM429.815 120C429.41 120 429.111 120.213 428.919 120.64C428.738 121.067 428.647 121.707 428.647 122.56C428.647 123.424 428.738 124.075 428.919 124.512C429.111 124.939 429.41 125.152 429.815 125.152C430.231 125.152 430.54 124.939 430.743 124.512C430.946 124.085 431.047 123.435 431.047 122.56C431.047 121.707 430.946 121.067 430.743 120.64C430.54 120.213 430.231 120 429.815 120Z" fill="#1A1B1C"/>
<path d="M27.293 120L22 125.293L16.707 120L22 114.707L27.293 120Z" stroke="#1A1B1C"/>
<path d="M45.44 174C47.744 174 49.104 172.752 49.104 170.736C49.104 169.168 48.272 168.256 47.12 167.872C47.872 167.552 48.608 166.72 48.608 165.68C48.608 163.856 47.312 162.8 45.184 162.8H41.184V174H45.44ZM42.544 164H45.152C46.496 164 47.248 164.56 47.248 165.712C47.248 166.864 46.496 167.44 45.152 167.44H42.544V164ZM42.544 168.656H45.216C46.864 168.656 47.712 169.376 47.712 170.72C47.712 172.048 46.864 172.768 45.216 172.768H42.544V168.656ZM51.8613 174V162.624H50.5813V174H51.8613ZM56.7079 165.808C54.8999 165.808 53.4279 166.96 53.2839 168.512H54.4999C54.5639 167.632 55.4919 166.896 56.6759 166.896C58.0519 166.896 58.8359 167.648 58.8359 168.752C58.8359 169.008 58.6759 169.184 58.3239 169.184H56.4999C54.5479 169.184 53.2839 170.16 53.2839 171.696C53.2839 173.168 54.3879 174.128 56.0839 174.128C57.3319 174.128 58.4039 173.536 58.8359 172.608V174H60.1159V168.8C60.1159 167.008 58.8039 165.808 56.7079 165.808ZM56.2759 173.04C55.2519 173.04 54.5959 172.512 54.5959 171.68C54.5959 170.736 55.3799 170.16 56.5799 170.16H58.8359V170.368C58.8359 172.032 57.8919 173.04 56.2759 173.04ZM65.1458 174.128C67.1938 174.128 68.5218 173.04 68.7938 171.392H67.5458C67.2578 172.368 66.3778 172.976 65.1618 172.976C63.4178 172.976 62.5538 171.616 62.5538 169.968C62.5538 168.32 63.4018 166.96 65.1618 166.96C66.3778 166.96 67.3858 167.68 67.5458 168.656H68.8098C68.5698 166.864 66.9538 165.808 65.1458 165.808C62.6018 165.808 61.2258 167.808 61.2258 169.968C61.2258 172.128 62.6018 174.128 65.1458 174.128ZM77.2252 174L73.4492 169.088L76.9052 165.936H75.2092L71.4172 169.344V162.624H70.1212V174H71.4172V170.928L72.4732 169.968L75.6092 174H77.2252Z" fill="#1A1B1C"/>
<path d="M411.912 174.128C414.008 174.128 415.864 172.976 415.864 170.832C415.864 169.488 414.968 168.496 413.8 168.112C414.696 167.712 415.416 166.752 415.416 165.616C415.416 163.904 413.912 162.672 411.832 162.672C409.832 162.672 408.376 163.952 408.296 165.984H409.624C409.704 164.656 410.536 163.904 411.816 163.904C413.16 163.904 414.024 164.56 414.024 165.664C414.024 166.784 413.224 167.6 411.896 167.6H411.016V168.8H411.912C413.48 168.8 414.472 169.504 414.472 170.816C414.472 172.144 413.48 172.896 411.912 172.896C410.392 172.896 409.24 171.936 409.24 170.48H407.896C407.896 172.672 409.656 174.128 411.912 174.128ZM422.823 162.416C423.612 162.416 424.21 162.731 424.615 163.36C425.02 163.979 425.223 164.853 425.223 165.984C425.223 167.115 425.026 168 424.631 168.64C424.247 169.269 423.644 169.584 422.823 169.584C422.322 169.584 421.895 169.44 421.543 169.152C421.191 168.864 420.924 168.453 420.743 167.92C420.572 167.376 420.487 166.731 420.487 165.984C420.487 164.853 420.674 163.979 421.047 163.36C421.42 162.731 422.012 162.416 422.823 162.416ZM422.823 163.408C422.418 163.408 422.119 163.627 421.927 164.064C421.746 164.491 421.655 165.131 421.655 165.984C421.655 166.837 421.746 167.483 421.927 167.92C422.119 168.357 422.418 168.576 422.823 168.576C423.239 168.576 423.548 168.363 423.751 167.936C423.954 167.499 424.055 166.848 424.055 165.984C424.055 165.131 423.954 164.491 423.751 164.064C423.548 163.627 423.239 163.408 422.823 163.408ZM430.135 162.576L423.799 174H422.567L428.903 162.576H430.135ZM429.815 166.992C430.338 166.992 430.775 167.136 431.127 167.424C431.479 167.701 431.746 168.107 431.927 168.64C432.119 169.163 432.215 169.803 432.215 170.56C432.215 171.691 432.018 172.576 431.623 173.216C431.239 173.845 430.636 174.16 429.815 174.16C429.314 174.16 428.887 174.016 428.535 173.728C428.183 173.44 427.916 173.029 427.735 172.496C427.564 171.952 427.479 171.307 427.479 170.56C427.479 169.429 427.666 168.555 428.039 167.936C428.412 167.307 429.004 166.992 429.815 166.992ZM429.815 168C429.41 168 429.111 168.213 428.919 168.64C428.738 169.067 428.647 169.707 428.647 170.56C428.647 171.424 428.738 172.075 428.919 172.512C429.111 172.939 429.41 173.152 429.815 173.152C430.231 173.152 430.54 172.939 430.743 172.512C430.946 172.085 431.047 171.435 431.047 170.56C431.047 169.707 430.946 169.067 430.743 168.64C430.54 168.213 430.231 168 429.815 168Z" fill="#1A1B1C"/>
<path d="M27.293 168L22 173.293L16.707 168L22 162.707L27.293 168Z" stroke="#1A1B1C"/>
<path d="M44.816 222.128C47.152 222.128 48.912 220.976 48.912 218.944C48.912 214.736 42.32 216.512 42.32 213.648C42.32 212.576 43.216 211.904 44.736 211.904C46.24 211.904 47.216 212.72 47.344 213.984H48.688C48.528 211.968 46.976 210.672 44.736 210.672C42.496 210.672 40.944 211.872 40.944 213.648C40.944 217.648 47.488 216.064 47.488 218.944C47.488 220.304 46.368 220.896 44.816 220.896C43.072 220.896 42.048 219.888 41.904 218.336H40.56C40.704 220.624 42.304 222.128 44.816 222.128ZM53.868 222.128C56.268 222.128 57.98 220.384 57.98 217.968C57.98 215.536 56.268 213.808 53.868 213.808C51.484 213.808 49.772 215.536 49.772 217.968C49.772 220.384 51.484 222.128 53.868 222.128ZM53.868 220.976C52.22 220.976 51.084 219.728 51.084 217.968C51.084 216.208 52.22 214.96 53.868 214.96C55.532 214.96 56.668 216.208 56.668 217.968C56.668 219.728 55.532 220.976 53.868 220.976ZM64.9706 213.936V218.288C64.9706 219.856 63.9946 220.96 62.6026 220.96C61.3866 220.96 60.5866 220.032 60.5866 218.656V213.936H59.3066V218.864C59.3066 220.832 60.4906 222.128 62.3146 222.128C63.5626 222.128 64.5546 221.568 64.9706 220.448V222H66.2506V213.936H64.9706ZM68.9291 213.936H67.2491V215.072H68.9291V219.472C68.9291 221.04 69.9211 222 71.4571 222H72.6891V220.832H71.5051C70.7211 220.832 70.2091 220.304 70.2091 219.408V215.072H72.6891V213.936H70.2091V211.36H68.9291V213.936ZM75.2138 222V217.648C75.2138 216.08 76.2058 214.976 77.5818 214.976C78.7978 214.976 79.5978 215.904 79.5978 217.28V222H80.8778V217.072C80.8778 215.104 79.6938 213.808 77.8698 213.808C76.6378 213.808 75.6298 214.368 75.2138 215.488V210.624H73.9338V222H75.2138ZM95.3833 222L90.9193 210.8H89.6873L85.2233 222H86.6473L87.8153 218.976H92.8073L93.9593 222H95.3833ZM90.3113 212.48L92.3273 217.76H88.2793L90.3113 212.48ZM99.0379 222.128C100.814 222.128 101.998 221.2 101.998 219.76C101.998 216.064 97.2779 218.224 97.2779 216.048C97.2779 215.344 97.9019 214.896 98.8459 214.896C99.5819 214.896 100.59 215.248 100.702 216.272H101.95C101.854 214.784 100.654 213.808 98.8779 213.808C97.1819 213.808 96.0299 214.704 96.0299 216.064C96.0299 219.552 100.718 217.392 100.718 219.792C100.718 220.448 100.046 221.008 99.0379 221.008C97.8699 221.008 97.1659 220.448 97.0539 219.408H95.8219C95.9499 221.088 97.1659 222.128 99.0379 222.128ZM103.321 212.496H104.809V210.608H103.321V212.496ZM104.713 222V213.936H103.433V222H104.713ZM109.624 213.808C107.816 213.808 106.344 214.96 106.2 216.512H107.416C107.48 215.632 108.408 214.896 109.592 214.896C110.968 214.896 111.752 215.648 111.752 216.752C111.752 217.008 111.592 217.184 111.24 217.184H109.416C107.464 217.184 106.2 218.16 106.2 219.696C106.2 221.168 107.304 222.128 109 222.128C110.248 222.128 111.32 221.536 111.752 220.608V222H113.032V216.8C113.032 215.008 111.72 213.808 109.624 213.808ZM109.192 221.04C108.168 221.04 107.512 220.512 107.512 219.68C107.512 218.736 108.296 218.16 109.496 218.16H111.752V218.368C111.752 220.032 110.808 221.04 109.192 221.04ZM115.886 222V217.648C115.886 216.08 116.878 214.976 118.254 214.976C119.47 214.976 120.27 215.904 120.27 217.28V222H121.55V217.072C121.55 215.104 120.366 213.808 118.542 213.808C117.31 213.808 116.302 214.368 115.886 215.488V213.936H114.606V222H115.886Z" fill="#1A1B1C"/>
<path d="M409.993 214.432C409.929 212.896 410.841 211.872 412.281 211.872C413.561 211.872 414.505 212.704 414.505 213.984C414.505 214.96 414.073 215.728 412.873 216.336L411.161 217.216C410.009 217.792 408.441 219.024 408.441 221.024V222H415.977V220.768H409.769C409.769 219.68 410.793 218.832 411.705 218.368L413.305 217.552C415.017 216.704 415.913 215.472 415.913 214.016C415.913 211.984 414.393 210.672 412.281 210.672C409.977 210.672 408.505 212.144 408.585 214.432H409.993ZM422.823 210.416C423.612 210.416 424.21 210.731 424.615 211.36C425.02 211.979 425.223 212.853 425.223 213.984C425.223 215.115 425.026 216 424.631 216.64C424.247 217.269 423.644 217.584 422.823 217.584C422.322 217.584 421.895 217.44 421.543 217.152C421.191 216.864 420.924 216.453 420.743 215.92C420.572 215.376 420.487 214.731 420.487 213.984C420.487 212.853 420.674 211.979 421.047 211.36C421.42 210.731 422.012 210.416 422.823 210.416ZM422.823 211.408C422.418 211.408 422.119 211.627 421.927 212.064C421.746 212.491 421.655 213.131 421.655 213.984C421.655 214.837 421.746 215.483 421.927 215.92C422.119 216.357 422.418 216.576 422.823 216.576C423.239 216.576 423.548 216.363 423.751 215.936C423.954 215.499 424.055 214.848 424.055 213.984C424.055 213.131 423.954 212.491 423.751 212.064C423.548 211.627 423.239 211.408 422.823 211.408ZM430.135 210.576L423.799 222H422.567L428.903 210.576H430.135ZM429.815 214.992C430.338 214.992 430.775 215.136 431.127 215.424C431.479 215.701 431.746 216.107 431.927 216.64C432.119 217.163 432.215 217.803 432.215 218.56C432.215 219.691 432.018 220.576 431.623 221.216C431.239 221.845 430.636 222.16 429.815 222.16C429.314 222.16 428.887 222.016 428.535 221.728C428.183 221.44 427.916 221.029 427.735 220.496C427.564 219.952 427.479 219.307 427.479 218.56C427.479 217.429 427.666 216.555 428.039 215.936C428.412 215.307 429.004 214.992 429.815 214.992ZM429.815 216C429.41 216 429.111 216.213 428.919 216.64C428.738 217.067 428.647 217.707 428.647 218.56C428.647 219.424 428.738 220.075 428.919 220.512C429.111 220.939 429.41 221.152 429.815 221.152C430.231 221.152 430.54 220.939 430.743 220.512C430.946 220.085 431.047 219.435 431.047 218.56C431.047 217.707 430.946 217.067 430.743 216.64C430.54 216.213 430.231 216 429.815 216Z" fill="#1A1B1C"/>
<path d="M27.293 216L22 221.293L16.707 216L22 210.707L27.293 216Z" stroke="#1A1B1C"/>
<path d="M48.144 270V268.768H42.544V258.8H41.184V270H48.144ZM52.231 261.808C50.423 261.808 48.951 262.96 48.807 264.512H50.023C50.087 263.632 51.015 262.896 52.199 262.896C53.575 262.896 54.359 263.648 54.359 264.752C54.359 265.008 54.199 265.184 53.847 265.184H52.023C50.071 265.184 48.807 266.16 48.807 267.696C48.807 269.168 49.911 270.128 51.607 270.128C52.855 270.128 53.927 269.536 54.359 268.608V270H55.639V264.8C55.639 263.008 54.327 261.808 52.231 261.808ZM51.799 269.04C50.775 269.04 50.119 268.512 50.119 267.68C50.119 266.736 50.903 266.16 52.103 266.16H54.359V266.368C54.359 268.032 53.415 269.04 51.799 269.04ZM58.046 261.936H56.366V263.072H58.046V267.472C58.046 269.04 59.038 270 60.574 270H61.806V268.832H60.622C59.838 268.832 59.326 268.304 59.326 267.408V263.072H61.806V261.936H59.326V259.36H58.046V261.936ZM62.7653 260.496H64.2533V258.608H62.7653V260.496ZM64.1573 270V261.936H62.8773V270H64.1573ZM67.2279 270V265.648C67.2279 264.08 68.2199 262.976 69.5959 262.976C70.8119 262.976 71.6119 263.904 71.6119 265.28V270H72.8919V265.072C72.8919 263.104 71.7079 261.808 69.8839 261.808C68.6519 261.808 67.6439 262.368 67.2279 263.488V261.936H65.9479V270H67.2279ZM78.3224 270.128C80.7224 270.128 82.4344 268.384 82.4344 265.968C82.4344 263.536 80.7224 261.808 78.3224 261.808C75.9384 261.808 74.2264 263.536 74.2264 265.968C74.2264 268.384 75.9384 270.128 78.3224 270.128ZM78.3224 268.976C76.6744 268.976 75.5384 267.728 75.5384 265.968C75.5384 264.208 76.6744 262.96 78.3224 262.96C79.9864 262.96 81.1224 264.208 81.1224 265.968C81.1224 267.728 79.9864 268.976 78.3224 268.976ZM94.6775 263.6H88.7415V258.8H87.3815V270H88.7415V264.832H94.6775V270H96.0375V258.8H94.6775V263.6ZM97.8527 260.496H99.3407V258.608H97.8527V260.496ZM99.2447 270V261.936H97.9647V270H99.2447ZM103.835 270.128C105.611 270.128 106.795 269.2 106.795 267.76C106.795 264.064 102.075 266.224 102.075 264.048C102.075 263.344 102.699 262.896 103.643 262.896C104.379 262.896 105.387 263.248 105.499 264.272H106.747C106.651 262.784 105.451 261.808 103.675 261.808C101.979 261.808 100.827 262.704 100.827 264.064C100.827 267.552 105.515 265.392 105.515 267.792C105.515 268.448 104.843 269.008 103.835 269.008C102.667 269.008 101.963 268.448 101.851 267.408H100.619C100.747 269.088 101.963 270.128 103.835 270.128ZM109.575 273.264V268.704C110.055 269.568 111.095 270.128 112.231 270.128C114.727 270.128 116.135 268.32 116.135 265.968C116.135 263.616 114.759 261.808 112.263 261.808C111.111 261.808 110.071 262.384 109.575 263.264V261.936H108.295V273.264H109.575ZM112.135 268.976C110.519 268.976 109.463 267.792 109.463 265.968C109.463 264.144 110.519 262.96 112.135 262.96C113.751 262.96 114.807 264.144 114.807 265.968C114.807 267.792 113.751 268.976 112.135 268.976ZM120.5 261.808C118.692 261.808 117.22 262.96 117.076 264.512H118.292C118.356 263.632 119.284 262.896 120.468 262.896C121.844 262.896 122.628 263.648 122.628 264.752C122.628 265.008 122.468 265.184 122.116 265.184H120.292C118.34 265.184 117.076 266.16 117.076 267.696C117.076 269.168 118.18 270.128 119.876 270.128C121.124 270.128 122.196 269.536 122.628 268.608V270H123.908V264.8C123.908 263.008 122.596 261.808 120.5 261.808ZM120.068 269.04C119.044 269.04 118.388 268.512 118.388 267.68C118.388 266.736 119.172 266.16 120.372 266.16H122.628V266.368C122.628 268.032 121.684 269.04 120.068 269.04ZM126.762 270V265.648C126.762 264.08 127.754 262.976 129.13 262.976C130.346 262.976 131.146 263.904 131.146 265.28V270H132.426V265.072C132.426 263.104 131.242 261.808 129.418 261.808C128.186 261.808 127.178 262.368 126.762 263.488V261.936H125.482V270H126.762ZM134.112 260.496H135.6V258.608H134.112V260.496ZM135.504 270V261.936H134.224V270H135.504ZM140.751 270.128C142.799 270.128 144.127 269.04 144.399 267.392H143.151C142.863 268.368 141.983 268.976 140.767 268.976C139.023 268.976 138.159 267.616 138.159 265.968C138.159 264.32 139.007 262.96 140.767 262.96C141.983 262.96 142.991 263.68 143.151 264.656H144.415C144.175 262.864 142.559 261.808 140.751 261.808C138.207 261.808 136.831 263.808 136.831 265.968C136.831 268.128 138.207 270.128 140.751 270.128Z" fill="#1A1B1C"/>
<path d="M411.932 270.128C414.668 270.128 415.756 268.272 415.756 264.848V263.952C415.756 260.528 414.668 258.672 411.932 258.672H411.372C408.668 258.672 407.564 260.528 407.564 263.952V264.848C407.564 268.272 408.668 270.128 411.372 270.128H411.932ZM411.42 268.896C409.676 268.896 408.94 267.6 408.94 265.008V263.792C408.94 261.2 409.676 259.904 411.42 259.904H411.916C413.66 259.904 414.396 261.2 414.396 263.792V265.008C414.396 267.6 413.66 268.896 411.916 268.896H411.42ZM422.823 258.416C423.612 258.416 424.21 258.731 424.615 259.36C425.02 259.979 425.223 260.853 425.223 261.984C425.223 263.115 425.026 264 424.631 264.64C424.247 265.269 423.644 265.584 422.823 265.584C422.322 265.584 421.895 265.44 421.543 265.152C421.191 264.864 420.924 264.453 420.743 263.92C420.572 263.376 420.487 262.731 420.487 261.984C420.487 260.853 420.674 259.979 421.047 259.36C421.42 258.731 422.012 258.416 422.823 258.416ZM422.823 259.408C422.418 259.408 422.119 259.627 421.927 260.064C421.746 260.491 421.655 261.131 421.655 261.984C421.655 262.837 421.746 263.483 421.927 263.92C422.119 264.357 422.418 264.576 422.823 264.576C423.239 264.576 423.548 264.363 423.751 263.936C423.954 263.499 424.055 262.848 424.055 261.984C424.055 261.131 423.954 260.491 423.751 260.064C423.548 259.627 423.239 259.408 422.823 259.408ZM430.135 258.576L423.799 270H422.567L428.903 258.576H430.135ZM429.815 262.992C430.338 262.992 430.775 263.136 431.127 263.424C431.479 263.701 431.746 264.107 431.927 264.64C432.119 265.163 432.215 265.803 432.215 266.56C432.215 267.691 432.018 268.576 431.623 269.216C431.239 269.845 430.636 270.16 429.815 270.16C429.314 270.16 428.887 270.016 428.535 269.728C428.183 269.44 427.916 269.029 427.735 268.496C427.564 267.952 427.479 267.307 427.479 266.56C427.479 265.429 427.666 264.555 428.039 263.936C428.412 263.307 429.004 262.992 429.815 262.992ZM429.815 264C429.41 264 429.111 264.213 428.919 264.64C428.738 265.067 428.647 265.707 428.647 266.56C428.647 267.424 428.738 268.075 428.919 268.512C429.111 268.939 429.41 269.152 429.815 269.152C430.231 269.152 430.54 268.939 430.743 268.512C430.946 268.085 431.047 267.435 431.047 266.56C431.047 265.707 430.946 265.067 430.743 264.64C430.54 264.213 430.231 264 429.815 264Z" fill="#1A1B1C"/>
<path d="M27.293 264L22 269.293L16.707 264L22 258.707L27.293 264Z" stroke="#1A1B1C"/>
<path d="M44.816 318.128C47.152 318.128 48.912 316.976 48.912 314.944C48.912 310.736 42.32 312.512 42.32 309.648C42.32 308.576 43.216 307.904 44.736 307.904C46.24 307.904 47.216 308.72 47.344 309.984H48.688C48.528 307.968 46.976 306.672 44.736 306.672C42.496 306.672 40.944 307.872 40.944 309.648C40.944 313.648 47.488 312.064 47.488 314.944C47.488 316.304 46.368 316.896 44.816 316.896C43.072 316.896 42.048 315.888 41.904 314.336H40.56C40.704 316.624 42.304 318.128 44.816 318.128ZM53.868 318.128C56.268 318.128 57.98 316.384 57.98 313.968C57.98 311.536 56.268 309.808 53.868 309.808C51.484 309.808 49.772 311.536 49.772 313.968C49.772 316.384 51.484 318.128 53.868 318.128ZM53.868 316.976C52.22 316.976 51.084 315.728 51.084 313.968C51.084 312.208 52.22 310.96 53.868 310.96C55.532 310.96 56.668 312.208 56.668 313.968C56.668 315.728 55.532 316.976 53.868 316.976ZM64.9706 309.936V314.288C64.9706 315.856 63.9946 316.96 62.6026 316.96C61.3866 316.96 60.5866 316.032 60.5866 314.656V309.936H59.3066V314.864C59.3066 316.832 60.4906 318.128 62.3146 318.128C63.5626 318.128 64.5546 317.568 64.9706 316.448V318H66.2506V309.936H64.9706ZM68.9291 309.936H67.2491V311.072H68.9291V315.472C68.9291 317.04 69.9211 318 71.4571 318H72.6891V316.832H71.5051C70.7211 316.832 70.2091 316.304 70.2091 315.408V311.072H72.6891V309.936H70.2091V307.36H68.9291V309.936ZM75.2138 318V313.648C75.2138 312.08 76.2058 310.976 77.5818 310.976C78.7978 310.976 79.5978 311.904 79.5978 313.28V318H80.8778V313.072C80.8778 311.104 79.6938 309.808 77.8698 309.808C76.6378 309.808 75.6298 310.368 75.2138 311.488V306.624H73.9338V318H75.2138ZM93.4793 318V316.768H87.6553V312.832H92.2473V311.6H87.6553V308.032H93.3033V306.8H86.2953V318H93.4793ZM97.8735 309.808C96.0655 309.808 94.5935 310.96 94.4495 312.512H95.6655C95.7295 311.632 96.6575 310.896 97.8415 310.896C99.2175 310.896 100.001 311.648 100.001 312.752C100.001 313.008 99.8415 313.184 99.4895 313.184H97.6655C95.7135 313.184 94.4495 314.16 94.4495 315.696C94.4495 317.168 95.5535 318.128 97.2495 318.128C98.4975 318.128 99.5695 317.536 100.001 316.608V318H101.281V312.8C101.281 311.008 99.9695 309.808 97.8735 309.808ZM97.4415 317.04C96.4175 317.04 95.7615 316.512 95.7615 315.68C95.7615 314.736 96.5455 314.16 97.7455 314.16H100.001V314.368C100.001 316.032 99.0575 317.04 97.4415 317.04ZM105.655 318.128C107.431 318.128 108.615 317.2 108.615 315.76C108.615 312.064 103.895 314.224 103.895 312.048C103.895 311.344 104.519 310.896 105.463 310.896C106.199 310.896 107.207 311.248 107.319 312.272H108.567C108.471 310.784 107.271 309.808 105.495 309.808C103.799 309.808 102.647 310.704 102.647 312.064C102.647 315.552 107.335 313.392 107.335 315.792C107.335 316.448 106.663 317.008 105.655 317.008C104.487 317.008 103.783 316.448 103.671 315.408H102.439C102.567 317.088 103.783 318.128 105.655 318.128ZM110.822 309.936H109.142V311.072H110.822V315.472C110.822 317.04 111.814 318 113.35 318H114.582V316.832H113.398C112.614 316.832 112.102 316.304 112.102 315.408V311.072H114.582V309.936H112.102V307.36H110.822V309.936ZM128.361 318L123.897 306.8H122.665L118.201 318H119.625L120.793 314.976H125.785L126.937 318H128.361ZM123.289 308.48L125.305 313.76H121.257L123.289 308.48ZM132.016 318.128C133.792 318.128 134.976 317.2 134.976 315.76C134.976 312.064 130.256 314.224 130.256 312.048C130.256 311.344 130.88 310.896 131.824 310.896C132.56 310.896 133.568 311.248 133.68 312.272H134.928C134.832 310.784 133.632 309.808 131.856 309.808C130.16 309.808 129.008 310.704 129.008 312.064C129.008 315.552 133.696 313.392 133.696 315.792C133.696 316.448 133.024 317.008 132.016 317.008C130.848 317.008 130.144 316.448 130.032 315.408H128.8C128.928 317.088 130.144 318.128 132.016 318.128ZM139.532 309.808C137.724 309.808 136.252 310.96 136.108 312.512H137.324C137.388 311.632 138.316 310.896 139.5 310.896C140.876 310.896 141.66 311.648 141.66 312.752C141.66 313.008 141.5 313.184 141.148 313.184H139.324C137.372 313.184 136.108 314.16 136.108 315.696C136.108 317.168 137.212 318.128 138.908 318.128C140.156 318.128 141.228 317.536 141.66 316.608V318H142.94V312.8C142.94 311.008 141.628 309.808 139.532 309.808ZM139.1 317.04C138.076 317.04 137.42 316.512 137.42 315.68C137.42 314.736 138.204 314.16 139.404 314.16H141.66V314.368C141.66 316.032 140.716 317.04 139.1 317.04ZM144.401 308.496H145.889V306.608H144.401V308.496ZM145.793 318V309.936H144.513V318H145.793ZM148.864 318V313.648C148.864 312.08 149.856 310.976 151.232 310.976C152.448 310.976 153.248 311.904 153.248 313.28V318H154.528V313.072C154.528 311.104 153.344 309.808 151.52 309.808C150.288 309.808 149.28 310.368 148.864 311.488V309.936H147.584V318H148.864Z" fill="#1A1B1C"/>
<path d="M411.932 318.128C414.668 318.128 415.756 316.272 415.756 312.848V311.952C415.756 308.528 414.668 306.672 411.932 306.672H411.372C408.668 306.672 407.564 308.528 407.564 311.952V312.848C407.564 316.272 408.668 318.128 411.372 318.128H411.932ZM411.42 316.896C409.676 316.896 408.94 315.6 408.94 313.008V311.792C408.94 309.2 409.676 307.904 411.42 307.904H411.916C413.66 307.904 414.396 309.2 414.396 311.792V313.008C414.396 315.6 413.66 316.896 411.916 316.896H411.42ZM422.823 306.416C423.612 306.416 424.21 306.731 424.615 307.36C425.02 307.979 425.223 308.853 425.223 309.984C425.223 311.115 425.026 312 424.631 312.64C424.247 313.269 423.644 313.584 422.823 313.584C422.322 313.584 421.895 313.44 421.543 313.152C421.191 312.864 420.924 312.453 420.743 311.92C420.572 311.376 420.487 310.731 420.487 309.984C420.487 308.853 420.674 307.979 421.047 307.36C421.42 306.731 422.012 306.416 422.823 306.416ZM422.823 307.408C422.418 307.408 422.119 307.627 421.927 308.064C421.746 308.491 421.655 309.131 421.655 309.984C421.655 310.837 421.746 311.483 421.927 311.92C422.119 312.357 422.418 312.576 422.823 312.576C423.239 312.576 423.548 312.363 423.751 311.936C423.954 311.499 424.055 310.848 424.055 309.984C424.055 309.131 423.954 308.491 423.751 308.064C423.548 307.627 423.239 307.408 422.823 307.408ZM430.135 306.576L423.799 318H422.567L428.903 306.576H430.135ZM429.815 310.992C430.338 310.992 430.775 311.136 431.127 311.424C431.479 311.701 431.746 312.107 431.927 312.64C432.119 313.163 432.215 313.803 432.215 314.56C432.215 315.691 432.018 316.576 431.623 317.216C431.239 317.845 430.636 318.16 429.815 318.16C429.314 318.16 428.887 318.016 428.535 317.728C428.183 317.44 427.916 317.029 427.735 316.496C427.564 315.952 427.479 315.307 427.479 314.56C427.479 313.429 427.666 312.555 428.039 311.936C428.412 311.307 429.004 310.992 429.815 310.992ZM429.815 312C429.41 312 429.111 312.213 428.919 312.64C428.738 313.067 428.647 313.707 428.647 314.56C428.647 315.424 428.738 316.075 428.919 316.512C429.111 316.939 429.41 317.152 429.815 317.152C430.231 317.152 430.54 316.939 430.743 316.512C430.946 316.085 431.047 315.435 431.047 314.56C431.047 313.707 430.946 313.067 430.743 312.64C430.54 312.213 430.231 312 429.815 312Z" fill="#1A1B1C"/>
<path d="M27.293 312L22 317.293L16.707 312L22 306.707L27.293 312Z" stroke="#1A1B1C"/>
<path d="M42.512 366V357.072L46.048 366H47.248L50.784 357.072V366H52.112V354.8H50.336L46.656 364.16L42.96 354.8H41.184V366H42.512ZM53.9209 356.496H55.4089V354.608H53.9209V356.496ZM55.3129 366V357.936H54.0329V366H55.3129ZM60.5275 366.128C61.6635 366.128 62.7195 365.552 63.1995 364.672V366H64.4795V354.624H63.1995V359.248C62.7195 358.384 61.6635 357.808 60.5275 357.808C58.0155 357.808 56.6395 359.616 56.6395 361.968C56.6395 364.32 58.0155 366.128 60.5275 366.128ZM60.6395 364.976C59.0235 364.976 57.9515 363.792 57.9515 361.968C57.9515 360.144 59.0235 358.96 60.6395 358.96C62.2555 358.96 63.3115 360.144 63.3115 361.968C63.3115 363.792 62.2555 364.976 60.6395 364.976ZM69.7544 366.128C70.8904 366.128 71.9464 365.552 72.4264 364.672V366H73.7064V354.624H72.4264V359.248C71.9464 358.384 70.8904 357.808 69.7544 357.808C67.2424 357.808 65.8664 359.616 65.8664 361.968C65.8664 364.32 67.2424 366.128 69.7544 366.128ZM69.8664 364.976C68.2504 364.976 67.1784 363.792 67.1784 361.968C67.1784 360.144 68.2504 358.96 69.8664 358.96C71.4824 358.96 72.5384 360.144 72.5384 361.968C72.5384 363.792 71.4824 364.976 69.8664 364.976ZM76.9013 366V354.624H75.6213V366H76.9013ZM84.6729 363.408C84.4169 364.416 83.5849 364.992 82.2729 364.992C80.7529 364.992 79.6489 363.808 79.5529 362.144H85.8569C85.8729 362.032 85.8889 361.76 85.8889 361.584C85.8889 359.44 84.4809 357.808 82.1289 357.808C79.7609 357.808 78.2889 359.552 78.2889 361.92C78.2889 364.224 79.8889 366.128 82.2729 366.128C84.2729 366.128 85.6969 365.056 85.9689 363.408H84.6729ZM82.1289 358.896C83.5689 358.896 84.4809 359.76 84.5769 361.12H79.6169C79.8569 359.696 80.7689 358.896 82.1289 358.896ZM98.0967 366V364.768H92.2727V360.832H96.8647V359.6H92.2727V356.032H97.9207V354.8H90.9127V366H98.0967ZM102.491 357.808C100.683 357.808 99.211 358.96 99.067 360.512H100.283C100.347 359.632 101.275 358.896 102.459 358.896C103.835 358.896 104.619 359.648 104.619 360.752C104.619 361.008 104.459 361.184 104.107 361.184H102.283C100.331 361.184 99.067 362.16 99.067 363.696C99.067 365.168 100.171 366.128 101.867 366.128C103.115 366.128 104.187 365.536 104.619 364.608V366H105.899V360.8C105.899 359.008 104.587 357.808 102.491 357.808ZM102.059 365.04C101.035 365.04 100.379 364.512 100.379 363.68C100.379 362.736 101.163 362.16 102.363 362.16H104.619V362.368C104.619 364.032 103.675 365.04 102.059 365.04ZM110.273 366.128C112.049 366.128 113.233 365.2 113.233 363.76C113.233 360.064 108.513 362.224 108.513 360.048C108.513 359.344 109.137 358.896 110.081 358.896C110.817 358.896 111.825 359.248 111.937 360.272H113.185C113.089 358.784 111.889 357.808 110.113 357.808C108.417 357.808 107.265 358.704 107.265 360.064C107.265 363.552 111.953 361.392 111.953 363.792C111.953 364.448 111.281 365.008 110.273 365.008C109.105 365.008 108.401 364.448 108.289 363.408H107.057C107.185 365.088 108.401 366.128 110.273 366.128ZM115.439 357.936H113.759V359.072H115.439V363.472C115.439 365.04 116.431 366 117.967 366H119.199V364.832H118.015C117.231 364.832 116.719 364.304 116.719 363.408V359.072H119.199V357.936H116.719V355.36H115.439V357.936ZM125.972 363.408C125.716 364.416 124.884 364.992 123.572 364.992C122.052 364.992 120.948 363.808 120.852 362.144H127.156C127.172 362.032 127.188 361.76 127.188 361.584C127.188 359.44 125.78 357.808 123.428 357.808C121.06 357.808 119.588 359.552 119.588 361.92C119.588 364.224 121.188 366.128 123.572 366.128C125.572 366.128 126.996 365.056 127.268 363.408H125.972ZM123.428 358.896C124.868 358.896 125.78 359.76 125.876 361.12H120.916C121.156 359.696 122.068 358.896 123.428 358.896ZM133.087 357.936H132.063C130.879 357.936 130.207 358.464 129.871 359.568V357.936H128.591V366H129.871V362.448C129.871 360.544 130.335 359.072 131.967 359.072H133.087V357.936ZM135.41 366V361.648C135.41 360.08 136.402 358.976 137.778 358.976C138.994 358.976 139.794 359.904 139.794 361.28V366H141.074V361.072C141.074 359.104 139.89 357.808 138.066 357.808C136.834 357.808 135.826 358.368 135.41 359.488V357.936H134.13V366H135.41Z" fill="#1A1B1C"/>
<path d="M411.932 366.128C414.668 366.128 415.756 364.272 415.756 360.848V359.952C415.756 356.528 414.668 354.672 411.932 354.672H411.372C408.668 354.672 407.564 356.528 407.564 359.952V360.848C407.564 364.272 408.668 366.128 411.372 366.128H411.932ZM411.42 364.896C409.676 364.896 408.94 363.6 408.94 361.008V359.792C408.94 357.2 409.676 355.904 411.42 355.904H411.916C413.66 355.904 414.396 357.2 414.396 359.792V361.008C414.396 363.6 413.66 364.896 411.916 364.896H411.42ZM422.823 354.416C423.612 354.416 424.21 354.731 424.615 355.36C425.02 355.979 425.223 356.853 425.223 357.984C425.223 359.115 425.026 360 424.631 360.64C424.247 361.269 423.644 361.584 422.823 361.584C422.322 361.584 421.895 361.44 421.543 361.152C421.191 360.864 420.924 360.453 420.743 359.92C420.572 359.376 420.487 358.731 420.487 357.984C420.487 356.853 420.674 355.979 421.047 355.36C421.42 354.731 422.012 354.416 422.823 354.416ZM422.823 355.408C422.418 355.408 422.119 355.627 421.927 356.064C421.746 356.491 421.655 357.131 421.655 357.984C421.655 358.837 421.746 359.483 421.927 359.92C422.119 360.357 422.418 360.576 422.823 360.576C423.239 360.576 423.548 360.363 423.751 359.936C423.954 359.499 424.055 358.848 424.055 357.984C424.055 357.131 423.954 356.491 423.751 356.064C423.548 355.627 423.239 355.408 422.823 355.408ZM430.135 354.576L423.799 366H422.567L428.903 354.576H430.135ZM429.815 358.992C430.338 358.992 430.775 359.136 431.127 359.424C431.479 359.701 431.746 360.107 431.927 360.64C432.119 361.163 432.215 361.803 432.215 362.56C432.215 363.691 432.018 364.576 431.623 365.216C431.239 365.845 430.636 366.16 429.815 366.16C429.314 366.16 428.887 366.016 428.535 365.728C428.183 365.44 427.916 365.029 427.735 364.496C427.564 363.952 427.479 363.307 427.479 362.56C427.479 361.429 427.666 360.555 428.039 359.936C428.412 359.307 429.004 358.992 429.815 358.992ZM429.815 360C429.41 360 429.111 360.213 428.919 360.64C428.738 361.067 428.647 361.707 428.647 362.56C428.647 363.424 428.738 364.075 428.919 364.512C429.111 364.939 429.41 365.152 429.815 365.152C430.231 365.152 430.54 364.939 430.743 364.512C430.946 364.085 431.047 363.435 431.047 362.56C431.047 361.707 430.946 361.067 430.743 360.64C430.54 360.213 430.231 360 429.815 360Z" fill="#1A1B1C"/>
<path d="M27.293 360L22 365.293L16.707 360L22 354.707L27.293 360Z" stroke="#1A1B1C"/>
</svg>
