<svg width="208" height="104" viewBox="0 0 208 104" fill="none" xmlns="http://www.w3.org/2000/svg">
<rect width="208" height="104" fill="#1A1B1C"/>
<rect opacity="0.3" width="208" height="1" fill="#1A1B1C"/>
<path d="M25.216 82.008C25.136 80.984 24.64 80.152 23.872 79.672C24.8 79.192 25.376 78.408 25.376 77.256C25.376 75.224 24 73.8 21.664 73.8H17.072V85H19.2V80.792H21.616C22.448 80.792 23.04 81.4 23.12 82.248L23.392 85H25.488L25.216 82.008ZM21.568 75.576C22.816 75.576 23.328 76.36 23.328 77.256C23.328 78.152 22.816 78.968 21.568 78.968H19.2V75.576H21.568ZM36.9778 85L32.6578 73.8H30.6738L26.3698 85H28.5458L29.5058 82.392H33.8258L34.7858 85H36.9778ZM31.6818 76.504L33.1858 80.6H30.1778L31.6818 76.504ZM42.4099 85.128C45.1619 85.128 47.2099 83.544 47.4339 81.224H45.3219C45.1299 82.44 43.9459 83.288 42.4099 83.288C40.4579 83.288 38.9859 81.944 38.9859 79.4C38.9859 76.856 40.4579 75.496 42.4099 75.496C43.9139 75.496 45.0979 76.344 45.2579 77.576H47.4659C47.1619 75.256 45.1139 73.672 42.4099 73.672C39.4819 73.672 36.8579 75.592 36.8579 79.4C36.8579 83.208 39.4339 85.128 42.4099 85.128ZM56.2753 85V83.16H50.7553V80.168H55.0433V78.344H50.7553V75.624H56.0993V73.8H48.6433V85H56.2753Z" fill="#FCFCFC"/>
<path d="M24.704 29V27.16H19.184V24.168H23.472V22.344H19.184V19.624H24.528V17.8H17.072V29H24.704ZM35.6653 29L31.3453 17.8H29.3613L25.0573 29H27.2333L28.1933 26.392H32.5133L33.4733 29H35.6653ZM30.3693 20.504L31.8733 24.6H28.8653L30.3693 20.504ZM39.9558 29.128C42.4198 29.128 44.1318 27.864 44.1318 25.784C44.1318 21.416 38.0358 23.272 38.0358 20.792C38.0358 20.008 38.7238 19.496 39.8278 19.496C41.0118 19.496 41.7798 20.152 41.8758 21.128H43.8918C43.7958 19.032 42.1958 17.672 39.8278 17.672C37.5558 17.672 35.9718 18.952 35.9718 20.792C35.9718 25.08 41.9878 23.416 41.9878 25.816C41.9878 26.808 41.1558 27.288 39.9558 27.288C38.6118 27.288 37.7798 26.488 37.6678 25.24H35.6358C35.7478 27.592 37.4118 29.128 39.9558 29.128ZM49.6255 29V19.624H53.0015V17.8H44.1215V19.624H47.5135V29H49.6255ZM66.7134 29L62.3934 17.8H60.4094L56.1054 29H58.2814L59.2414 26.392H63.5614L64.5214 29H66.7134ZM61.4174 20.504L62.9214 24.6H59.9134L61.4174 20.504ZM71.0039 29.128C73.4679 29.128 75.1799 27.864 75.1799 25.784C75.1799 21.416 69.0839 23.272 69.0839 20.792C69.0839 20.008 69.7719 19.496 70.8759 19.496C72.0599 19.496 72.8279 20.152 72.9239 21.128H74.9399C74.8439 19.032 73.2439 17.672 70.8759 17.672C68.6039 17.672 67.0199 18.952 67.0199 20.792C67.0199 25.08 73.0359 23.416 73.0359 25.816C73.0359 26.808 72.2039 27.288 71.0039 27.288C69.6599 27.288 68.8279 26.488 68.7159 25.24H66.6839C66.7959 27.592 68.4599 29.128 71.0039 29.128ZM78.5069 29V17.8H76.3789V29H78.5069ZM89.9565 29L85.6365 17.8H83.6525L79.3485 29H81.5245L82.4845 26.392H86.8045L87.7645 29H89.9565ZM84.6605 20.504L86.1645 24.6H83.1565L84.6605 20.504ZM92.8196 29V21.112L97.6836 29H99.9556V17.8H97.8436V25.704L92.9956 17.8H90.7076V29H92.8196Z" fill="#FCFCFC"/>
</svg>
