<svg width="208" height="104" viewBox="0 0 208 104" fill="none" xmlns="http://www.w3.org/2000/svg">
<rect width="208" height="104" fill="#F3F3F4"/>
<rect width="208" height="1" fill="#1A1B1C"/>
<path d="M20.752 85.128C23.216 85.128 24.928 83.864 24.928 81.784C24.928 77.416 18.832 79.272 18.832 76.792C18.832 76.008 19.52 75.496 20.624 75.496C21.808 75.496 22.576 76.152 22.672 77.128H24.688C24.592 75.032 22.992 73.672 20.624 73.672C18.352 73.672 16.768 74.952 16.768 76.792C16.768 81.08 22.784 79.416 22.784 81.816C22.784 82.808 21.952 83.288 20.752 83.288C19.408 83.288 18.576 82.488 18.464 81.24H16.432C16.544 83.592 18.208 85.128 20.752 85.128ZM33.759 85V83.16H28.239V80.168H32.527V78.344H28.239V75.624H33.583V73.8H26.127V85H33.759ZM40.0803 79.384L43.5043 73.8H41.3123L38.9763 77.592L36.6403 73.8H34.4483L37.8723 79.384L34.4003 85H36.6243L38.9763 81.176L41.3123 85H43.5363L40.0803 79.384Z" fill="#1A1B1C"/>
<path d="M19.184 29V24.296H23.472V22.472H19.184V19.624H24.528V17.8H17.072V29H19.184ZM33.4934 29V27.16H27.9734V24.168H32.2614V22.344H27.9734V19.624H33.3174V17.8H25.8614V29H33.4934ZM36.8066 29V21.576L39.8626 29H41.4626L44.5026 21.576V29H46.4866V17.8H44.0546L40.6626 26.072L37.2706 17.8H34.8226V29H36.8066ZM57.9471 29L53.6271 17.8H51.6431L47.3391 29H49.5151L50.4751 26.392H54.7951L55.7551 29H57.9471ZM52.6511 20.504L54.1551 24.6H51.1471L52.6511 20.504ZM66.0583 29V27.16H60.8263V17.8H58.6983V29H66.0583ZM74.6353 29V27.16H69.1153V24.168H73.4033V22.344H69.1153V19.624H74.4593V17.8H67.0033V29H74.6353Z" fill="#1A1B1C"/>
</svg>
