<svg width="666" height="213" viewBox="0 0 666 213" fill="none" xmlns="http://www.w3.org/2000/svg">
<path d="M34.1035 92.024C52.5355 92.024 66.7435 83.192 66.7435 67.064C66.7435 33.912 12.3435 47.864 12.3435 23.672C12.3435 14.2 20.2795 8.312 33.7195 8.312C46.6475 8.312 55.2235 15.48 56.3755 26.36H64.9515C63.4155 10.616 51.1275 0.375999 33.7195 0.375999C15.7995 0.375999 3.51151 9.71999 3.51151 23.672C3.51151 54.904 57.6555 42.36 57.6555 67.064C57.6555 79.096 47.6715 84.088 34.1035 84.088C18.9995 84.088 10.1675 75.384 8.88751 61.944H0.31151C1.59151 80.12 14.1355 92.024 34.1035 92.024ZM100.495 92.024C119.439 92.024 133.007 78.2 133.007 58.744C133.007 39.288 119.439 25.464 100.495 25.464C81.5505 25.464 67.9825 39.288 67.9825 58.744C67.9825 78.2 81.5505 92.024 100.495 92.024ZM100.495 84.6C86.1585 84.6 76.4305 73.848 76.4305 58.744C76.4305 43.64 86.1585 32.888 100.495 32.888C114.831 32.888 124.559 43.64 124.559 58.744C124.559 73.848 114.831 84.6 100.495 84.6ZM146.561 117.112V79.352C150.529 86.904 159.489 92.024 168.961 92.024C189.441 92.024 200.321 77.176 200.321 58.744C200.321 40.312 189.441 25.464 168.961 25.464C159.489 25.464 150.529 30.584 146.561 38.136V26.488H138.497V117.112H146.561ZM168.705 84.6C154.753 84.6 145.665 74.36 145.665 58.744C145.665 43.128 154.753 32.888 168.705 32.888C182.657 32.888 191.745 43.128 191.745 58.744C191.745 74.36 182.657 84.6 168.705 84.6ZM213.851 91V56.312C213.851 42.616 222.427 32.888 234.459 32.888C244.827 32.888 251.611 40.824 251.611 52.856V91H259.675V51.832C259.675 35.832 250.203 25.464 235.611 25.464C225.371 25.464 217.179 30.2 213.851 39.928V0.375999H205.787V91H213.851ZM267.797 14.456H277.525V0.375999H267.797V14.456ZM276.757 91V26.488H268.693V91H276.757ZM307.749 92.024C321.701 92.024 331.045 84.856 331.045 73.592C331.045 43.896 292.517 61.816 292.517 43.128C292.517 36.984 298.021 32.888 306.341 32.888C312.485 32.888 321.573 35.704 322.597 44.792H330.661C329.893 33.144 320.549 25.464 306.853 25.464C293.029 25.464 284.069 32.376 284.069 43.128C284.069 71.16 322.597 52.472 322.597 73.592C322.597 79.48 316.709 84.6 307.749 84.6C297.509 84.6 291.493 79.736 290.597 70.648H282.533C283.557 83.96 293.157 92.024 307.749 92.024ZM343.057 26.488H329.233V33.912H343.057V71.672C343.057 83.576 350.353 91 362.001 91H371.601V83.576H361.873C355.345 83.576 351.121 79.096 351.121 71.672V33.912H371.601V26.488H351.121V5.368H343.057V26.488ZM373.292 14.456H383.02V0.375999H373.292V14.456ZM382.252 91V26.488H374.188V91H382.252ZM418.236 92.024C434.492 92.024 444.348 83.96 446.652 71.032H438.972C436.412 79.48 428.86 84.6 418.236 84.6C403.004 84.6 395.836 72.696 395.836 58.744C395.836 44.792 402.876 32.888 418.236 32.888C428.86 32.888 437.692 39.16 438.972 47.608H446.908C444.732 33.4 431.932 25.464 418.236 25.464C397.756 25.464 387.388 41.848 387.388 58.744C387.388 75.64 397.756 92.024 418.236 92.024ZM475.09 25.464C461.65 25.464 449.362 34.296 448.082 46.712H456.146C456.658 39.16 465.106 32.888 475.09 32.888C487.122 32.888 494.034 39.672 494.034 49.4C494.034 51.32 492.882 52.472 490.066 52.472H474.45C458.45 52.472 448.21 60.28 448.21 72.568C448.21 84.472 457.042 92.024 470.866 92.024C481.234 92.024 490.194 87.032 494.034 79.224V91H502.098V49.4C502.098 35.064 491.986 25.464 475.09 25.464ZM471.506 84.6C462.546 84.6 456.786 79.864 456.786 72.568C456.786 64.376 463.698 59.256 474.45 59.256H494.034V61.176C494.034 76.024 485.714 84.6 471.506 84.6ZM515.967 26.488H502.143V33.912H515.967V71.672C515.967 83.576 523.263 91 534.911 91H544.511V83.576H534.783C528.255 83.576 524.031 79.096 524.031 71.672V33.912H544.511V26.488H524.031V5.368H515.967V26.488ZM593.735 70.648C591.559 79.48 584.391 84.6 572.999 84.6C560.071 84.6 550.087 73.976 549.575 59.512H601.159C601.287 58.616 601.415 56.44 601.415 55.288C601.415 37.496 589.511 25.464 571.847 25.464C553.671 25.464 541.383 38.648 541.383 58.232C541.383 77.432 554.695 92.024 572.999 92.024C588.999 92.024 600.135 83.576 602.183 70.648H593.735ZM571.847 32.888C584.135 32.888 592.071 40.184 592.967 52.088H550.087C552.135 40.056 560.071 32.888 571.847 32.888ZM634.782 92.024C644.254 92.024 653.214 86.904 657.182 79.352V91H665.246V0.375999H657.182V38.136C653.214 30.584 644.254 25.464 634.782 25.464C614.302 25.464 603.422 40.312 603.422 58.744C603.422 77.176 614.302 92.024 634.782 92.024ZM635.038 84.6C621.086 84.6 611.998 74.36 611.998 58.744C611.998 43.128 621.086 32.888 635.038 32.888C648.99 32.888 658.078 43.128 658.078 58.744C658.078 74.36 648.99 84.6 635.038 84.6ZM160.711 212.024C174.663 212.024 184.007 204.856 184.007 193.592C184.007 163.896 145.479 181.816 145.479 163.128C145.479 156.984 150.983 152.888 159.303 152.888C165.447 152.888 174.535 155.704 175.559 164.792H183.623C182.855 153.144 173.511 145.464 159.815 145.464C145.991 145.464 137.031 152.376 137.031 163.128C137.031 191.16 175.559 172.472 175.559 193.592C175.559 199.48 169.671 204.6 160.711 204.6C150.471 204.6 144.455 199.736 143.559 190.648H135.495C136.519 203.96 146.119 212.024 160.711 212.024ZM245.022 211L213.918 171.576L242.334 146.488H231.326L198.686 175.288V120.376H190.494V211H198.686V185.144L207.646 177.208L234.526 211H245.022ZM245.754 134.456H255.482V120.376H245.754V134.456ZM254.714 211V146.488H246.65V211H254.714ZM271.754 211V176.312C271.754 162.616 280.33 152.888 292.362 152.888C302.73 152.888 309.514 160.824 309.514 172.856V211H317.578V171.832C317.578 155.832 308.106 145.464 293.514 145.464C283.274 145.464 275.082 150.2 271.754 159.928V146.488H263.69V211H271.754ZM353.488 212.024C369.744 212.024 379.6 203.96 381.904 191.032H374.224C371.664 199.48 364.112 204.6 353.488 204.6C338.256 204.6 331.088 192.696 331.088 178.744C331.088 164.792 338.128 152.888 353.488 152.888C364.112 152.888 372.944 159.16 374.224 167.608H382.16C379.984 153.4 367.184 145.464 353.488 145.464C333.008 145.464 322.64 161.848 322.64 178.744C322.64 195.64 333.008 212.024 353.488 212.024ZM410.343 145.464C396.903 145.464 384.615 154.296 383.335 166.712H391.399C391.911 159.16 400.359 152.888 410.343 152.888C422.375 152.888 429.287 159.672 429.287 169.4C429.287 171.32 428.135 172.472 425.319 172.472H409.703C393.703 172.472 383.463 180.28 383.463 192.568C383.463 204.472 392.295 212.024 406.119 212.024C416.487 212.024 425.447 207.032 429.287 199.224V211H437.351V169.4C437.351 155.064 427.239 145.464 410.343 145.464ZM406.759 204.6C397.799 204.6 392.039 199.864 392.039 192.568C392.039 184.376 398.951 179.256 409.703 179.256H429.287V181.176C429.287 196.024 420.967 204.6 406.759 204.6ZM478.867 146.488H470.419C460.435 146.488 455.059 151.224 452.499 160.184V146.488H444.435V211H452.499V183.48C452.499 166.968 456.211 153.912 470.419 153.912H478.867V146.488ZM526.737 190.648C524.561 199.48 517.393 204.6 506.001 204.6C493.073 204.6 483.089 193.976 482.577 179.512H534.161C534.289 178.616 534.417 176.44 534.417 175.288C534.417 157.496 522.513 145.464 504.849 145.464C486.673 145.464 474.385 158.648 474.385 178.232C474.385 197.432 487.697 212.024 506.001 212.024C522.001 212.024 533.137 203.576 535.185 190.648H526.737ZM504.849 152.888C517.137 152.888 525.073 160.184 525.969 172.088H483.089C485.137 160.056 493.073 152.888 504.849 152.888Z" fill="#1A1B1C"/>
</svg>
